{"title":"The. Collection. 2012 1080p BluRay x264 [Dual Audio] [HINDI(5.1)","uid":10345818,"size":1323116152,"categoryP":"video","categoryS":"hd___movies","magnet":"?xt=urn:btih:1794f9af89f88540f3d887bfe8554f501036676a&amp;dn=The.+Collection.+2012+1080p+BluRay+x264+%5BDual+Audio%5D+%5BHINDI%285.1%29&amp;tr=udp%3A%2F%2Ftracker.openbittorrent.com%3A80&amp;tr=udp%3A%2F%2Fopen.demonii.com%3A1337&amp;tr=udp%3A%2F%2Ftracker.coppersurfer.tk%3A6969&amp;tr=udp%3A%2F%2Fexodus.desync.com%3A6969","seeders":2,"leechers":1,"uploader":"boniin","files":17,"time":1402601584,"description":"General\nFormat                                   : Matroska\nFormat version                           : Version 4 / Version 2\nFile size                                : 1.23 GiB\nDuration                                 : 1h 18mn\nOverall bit rate                         : 2 243 Kbps\nMovie name                               : The Collection 2012 BDRip ~Invincible\nEncoded date                             : UTC 2014-06-12 16:44:56\nWriting application                      : mkvmerge v6.6.0 ('The Edge Of The In Between') built on Dec  1 2013 17:55:00\nWriting library                          : libebml v1.3.0 + libmatroska v1.4.1\n\nVideo\nID                                       : 1\nFormat                                   : MPEG-4 Visual\nFormat profile                           : Advanced Simple@L5\nFormat settings, BVOP                    : Yes\nFormat settings, QPel                    : No\nFormat settings, GMC                     : No warppoints\nFormat settings, Matrix                  : Default (H.263)\nCodec ID                                 : V_MS/VFW/FOURCC / XVID\nCodec ID/Hint                            : XviD\nDuration                                 : 1h 18mn\nBit rate                                 : 1 303 Kbps\nWidth                                    : 1 920 pixels\nHeight                                   : 800 pixels\nDisplay aspect ratio                     : 2.40:1\nFrame rate mode                          : Constant\nFrame rate                               : 25.000 fps\nOriginal frame rate                      : 24.000 fps\nColor space                              : YUV\nChroma subsampling                       : 4:2:0\nBit depth                                : 8 bits\nScan type                                : Progressive\nCompression mode                         : Lossy\nBits/(Pixel*Frame)                       : 0.034\nStream size                              : 730 MiB (58%)\nWriting library                          : XviD 1.2.1 (UTC 2008-12-04)\nDefault                                  : Yes\nForced                                   : No\n\nAudio #1\nID                                       : 2\nFormat                                   : AC-3\nFormat/Info                              : Audio Coding 3\nMode extension                           : CM (complete main)\nFormat settings, Endianness              : Big\nCodec ID                                 : A_AC3\nDuration                                 : 1h 18mn\nBit rate mode                            : Constant\nBit rate                                 : 448 Kbps\nChannel(s)                               : 6 channels\nChannel positions                        : Front: L C R, Side: L R, LFE\nSampling rate                            : 48.0 KHz\nBit depth                                : 16 bits\nCompression mode                         : Lossy\nDelay relative to video                  : 700ms\nStream size                              : 251 MiB (20%)\nTitle                                    : DVD AUDIO DD5.1 ORG~Invincible\nLanguage                                 : Hindi\nDefault                                  : Yes\nForced                                   : No\n\nAudio #2\nID                                       : 3\nFormat                                   : AC-3\nFormat/Info                              : Audio Coding 3\nMode extension                           : CM (complete main)\nFormat settings, Endianness              : Big\nCodec ID                                 : A_AC3\nDuration                                 : 1h 18mn\nBit rate mode                            : Constant\nBit rate                                 : 448 Kbps\nChannel(s)                               : 6 channels\nChannel positions                        : Front: L C R, Side: L R, LFE\nSampling rate                            : 48.0 KHz\nBit depth                                : 16 bits\nCompression mode                         : Lossy\nStream size                              : 251 MiB (20%)\nTitle                                    : ~Invincible\nDefault                                  : No\nForced                                   : No\n","torrent":{"xt":"urn:btih:1794f9af89f88540f3d887bfe8554f501036676a","amp;dn":"The.+Collection.+2012+1080p+BluRay+x264+%5BDual+Audio%5D+%5BHINDI%285.1%29","amp;tr":["udp%3A%2F%2Ftracker.openbittorrent.com%3A80","udp%3A%2F%2Fopen.demonii.com%3A1337","udp%3A%2F%2Ftracker.coppersurfer.tk%3A6969","udp%3A%2F%2Fexodus.desync.com%3A6969"],"infoHash":"1794f9af89f88540f3d887bfe8554f501036676a","infoHashBuffer":{"type":"Buffer","data":[23,148,249,175,137,248,133,64,243,216,135,191,232,85,79,80,16,54,103,106]},"announce":[],"urlList":[]}}